<?xml version="1.0" encoding="UTF-8"?>
<!DOCTYPE svg PUBLIC "-//W3C//DTD SVG 1.1//EN" "http://www.w3.org/Graphics/SVG/1.1/DTD/svg11.dtd">
<svg xmlns="http://www.w3.org/2000/svg" version="1.1" width="1440px" height="496px" style="shape-rendering:geometricPrecision; text-rendering:geometricPrecision; image-rendering:optimizeQuality; fill-rule:evenodd; clip-rule:evenodd" xmlns:xlink="http://www.w3.org/1999/xlink">
<g><path style="opacity:1" fill="#d9d9d9" d="M -0.5,-0.5 C 479.5,-0.5 959.5,-0.5 1439.5,-0.5C 1439.5,164.833 1439.5,330.167 1439.5,495.5C 1156.5,495.5 873.5,495.5 590.5,495.5C 584.52,493.018 580.353,488.685 578,482.5C 577.667,456.5 577.333,430.5 577,404.5C 575.833,392.667 569.333,386.167 557.5,385C 513.833,384.667 470.167,384.333 426.5,384C 420.333,381.833 416.167,377.667 414,371.5C 413.927,351.13 413.26,330.796 412,310.5C 409.833,304.333 405.667,300.167 399.5,298C 270.529,296.677 141.529,296.011 12.5,296C 6.31536,293.647 1.98203,289.48 -0.5,283.5C -0.5,188.833 -0.5,94.1667 -0.5,-0.5 Z"/></g>
</svg>
