<?xml version="1.0" standalone="no"?>
<!DOCTYPE svg PUBLIC "-//W3C//DTD SVG 20010904//EN"
 "http://www.w3.org/TR/2001/REC-SVG-20010904/DTD/svg10.dtd">
<svg version="1.0" xmlns="http://www.w3.org/2000/svg"
 width="600.000000pt" height="600.000000pt" viewBox="0 0 600.000000 600.000000"
 preserveAspectRatio="xMidYMid meet">

<g transform="translate(0.000000,600.000000) scale(0.100000,-0.100000)"
fill="#000000" stroke="none">
<path d="M2385 5629 c-536 -29 -1070 -301 -1423 -724 -722 -864 -609 -2138
253 -2863 539 -453 1281 -594 1950 -371 145 48 327 136 454 219 l94 61 789
-788 788 -788 167 168 168 167 -779 779 c-428 428 -777 782 -775 787 2 5 36
52 75 104 295 396 429 843 403 1350 -29 549 -308 1089 -749 1450 -307 251
-750 428 -1114 446 -55 3 -117 6 -136 7 -19 2 -93 0 -165 -4z m490 -259 c647
-139 1151 -584 1354 -1196 74 -221 85 -297 86 -569 0 -213 -3 -252 -23 -350
-153 -732 -694 -1274 -1422 -1426 -132 -27 -436 -38 -574 -19 -696 91 -1266
559 -1485 1216 -75 223 -85 296 -85 574 0 278 10 351 85 574 213 640 759 1100
1436 1211 136 22 497 14 628 -15z"/>
</g>
</svg>
